<svg xmlns="http://www.w3.org/2000/svg" viewBox="0 0 32 32" fill="none" aria-hidden="true">
  <!--
    Roser mark — rosebud in profile.
    One solid silhouette + one fold cutout. Holds at 16px.
  -->
  <path
    fill="currentColor"
    fill-rule="evenodd"
    d="M16 3c6.2 0 11.2 5.2 11.2 12.2 0 6.1-4.2 11.1-9.5 14-.9.5-2 .5-2.9 0-5.3-2.9-9.5-7.9-9.5-14C5.3 8.2 10.3 3 16 3Zm-2.2 6.2c-2.6 2.8-2.8 7.2-.2 10.2.4.5 1.2.5 1.6 0 .4-.4.4-1.1 0-1.5-1.8-2.2-1.7-5.4.3-7.4.4-.5.4-1.2 0-1.6-.5-.4-1.2-.3-1.7.3Z"
  />
</svg>
